<svg width="24" height="24" viewBox="0 0 24 24" fill="none" xmlns="http://www.w3.org/2000/svg">
<g clip-path="url(#clip0_1_550)">
<path d="M6.59 0.659944C8.93 -1.15006 11.47 1.05994 12.04 4.49994C12.47 4.49994 12.89 4.61994 13.27 4.83994C13.79 4.23994 14.25 3.41994 14.07 2.49994C13.65 0.349944 16.06 -1.39006 18.35 1.57994C20.16 3.91994 17.95 6.45994 14.5 7.02994C14.5 7.45994 14.39 7.88994 14.16 8.26994C14.76 8.77994 15.58 9.23994 16.5 9.05994C18.63 8.63994 20.38 11.0399 17.41 13.3399C15.07 15.1499 12.53 12.9399 11.96 9.49994C11.53 9.49994 11.11 9.36994 10.74 9.14994C10.22 9.74994 9.75 10.5799 9.93 11.4999C10.35 13.6399 7.94 15.3899 5.65 12.4199C3.83 10.0699 6.05 7.52994 9.5 6.96994C9.5 6.53994 9.63 6.11994 9.85 5.73994C9.25 5.22994 8.43 4.75994 7.5 4.93994C5.37 5.35994 3.62 2.95994 6.59 0.659944ZM5 15.9999H7C7.53043 15.9999 8.03914 16.2107 8.41421 16.5857C8.78929 16.9608 9 17.4695 9 17.9999V23.9999H7V21.9999H5V23.9999H3V17.9999C3 17.4695 3.21071 16.9608 3.58579 16.5857C3.96086 16.2107 4.46957 15.9999 5 15.9999ZM5 17.9999V19.9999H7V17.9999H5ZM12.93 15.9999H15L12.07 23.9999H10L12.93 15.9999ZM18 15.9999H21V17.9999H18V21.9999H21V23.9999H18C17.4696 23.9999 16.9609 23.7892 16.5858 23.4142C16.2107 23.0391 16 22.5304 16 21.9999V17.9999C16 17.4695 16.2107 16.9608 16.5858 16.5857C16.9609 16.2107 17.4696 15.9999 18 15.9999Z" fill="black"/>
</g>
<defs>
<clipPath id="clip0_1_550">
<rect width="24" height="24" fill="white"/>
</clipPath>
</defs>
</svg>
