<svg width="27" height="27" viewBox="0 0 27 27" fill="none" xmlns="http://www.w3.org/2000/svg">
<path d="M13.6667 0.166504C11.0296 0.166504 8.45177 0.94849 6.25911 2.41358C4.06645 3.87866 2.35749 5.96104 1.34832 8.39739C0.339151 10.8337 0.0751067 13.5146 0.589576 16.101C1.10405 18.6875 2.37392 21.0632 4.23862 22.9279C6.10332 24.7926 8.4791 26.0625 11.0655 26.577C13.6519 27.0914 16.3328 26.8274 18.7692 25.8182C21.2055 24.8091 23.2879 23.1001 24.753 20.9074C26.2181 18.7148 27 16.1369 27 13.4998C27 11.7489 26.6552 10.0151 25.9851 8.39739C25.315 6.77972 24.3329 5.30986 23.0948 4.07175C21.8567 2.83363 20.3868 1.85151 18.7692 1.18144C17.1515 0.511381 15.4177 0.166504 13.6667 0.166504ZM13.6667 24.1665C11.557 24.1665 9.49475 23.5409 7.74063 22.3688C5.98651 21.1968 4.61933 19.5309 3.812 17.5818C3.00466 15.6327 2.79343 13.488 3.205 11.4189C3.61658 9.34974 4.63248 7.44913 6.12424 5.95737C7.616 4.46561 9.51662 3.4497 11.5858 3.03813C13.6549 2.62655 15.7996 2.83779 17.7487 3.64512C19.6977 4.45246 21.3637 5.81963 22.5357 7.57375C23.7078 9.32788 24.3334 11.3902 24.3334 13.4998C24.3334 16.3288 23.2096 19.0419 21.2092 21.0423C19.2088 23.0427 16.4957 24.1665 13.6667 24.1665ZM13.6667 5.49984C13.3131 5.49984 12.974 5.64031 12.7239 5.89036C12.4739 6.14041 12.3334 6.47955 12.3334 6.83317V12.1665H9.66671C9.31309 12.1665 8.97395 12.307 8.7239 12.557C8.47386 12.8071 8.33338 13.1462 8.33338 13.4998C8.33338 13.8535 8.47386 14.1926 8.7239 14.4426C8.97395 14.6927 9.31309 14.8332 9.66671 14.8332H13.6667C14.0203 14.8332 14.3595 14.6927 14.6095 14.4426C14.8596 14.1926 15 13.8535 15 13.4998V6.83317C15 6.47955 14.8596 6.14041 14.6095 5.89036C14.3595 5.64031 14.0203 5.49984 13.6667 5.49984Z" fill="white"/>
</svg>
