<svg width="32" height="32" viewBox="0 0 32 32" fill="none" xmlns="http://www.w3.org/2000/svg">
<path d="M27.8667 2.6665H4.13332C3.74434 2.6665 3.37129 2.82103 3.09623 3.09608C2.82118 3.37113 2.66666 3.74419 2.66666 4.13317V27.8665C2.66666 28.0591 2.70459 28.2498 2.7783 28.4278C2.85201 28.6057 2.96004 28.7674 3.09623 28.9036C3.23243 29.0398 3.39411 29.1478 3.57205 29.2215C3.75 29.2952 3.94072 29.3332 4.13332 29.3332H16.9067V18.9998H13.44V14.9998H16.9067V11.9998C16.8348 11.2955 16.918 10.584 17.1503 9.91522C17.3826 9.24643 17.7583 8.63656 18.2513 8.12839C18.7442 7.62021 19.3424 7.22603 20.0038 6.97349C20.6652 6.72095 21.3738 6.61617 22.08 6.6665C23.1178 6.66012 24.155 6.71354 25.1867 6.8265V10.4265H23.0667C21.3867 10.4265 21.0667 11.2265 21.0667 12.3865V14.9598H25.0667L24.5467 18.9598H21.0667V29.3332H27.8667C28.0593 29.3332 28.25 29.2952 28.4279 29.2215C28.6059 29.1478 28.7676 29.0398 28.9037 28.9036C29.0399 28.7674 29.148 28.6057 29.2217 28.4278C29.2954 28.2498 29.3333 28.0591 29.3333 27.8665V4.13317C29.3333 3.94057 29.2954 3.74985 29.2217 3.5719C29.148 3.39396 29.0399 3.23227 28.9037 3.09608C28.7676 2.95989 28.6059 2.85185 28.4279 2.77815C28.25 2.70444 28.0593 2.6665 27.8667 2.6665Z" fill="white"/>
</svg>
