<svg width="96" height="96" viewBox="0 0 96 96" fill="none" xmlns="http://www.w3.org/2000/svg">
<path d="M53.5552 7.96411C46.1298 7.96411 39.8677 13.3103 39.8677 20.1516C39.8677 23.6072 41.4667 26.6804 44.0051 28.8765L45.5938 25.7509C44.117 24.213 43.2425 22.2509 43.2425 20.1516C43.2425 15.3947 47.7256 11.3391 53.555 11.3391C59.3844 11.3391 63.8675 15.3947 63.8675 20.1516C63.8675 23.4147 61.7576 26.3477 58.5508 27.868L57.1479 31.9097C57.5022 31.824 57.8533 31.7252 58.2003 31.6135L59.9174 34.6159C57.9813 35.9777 56.1074 37.6658 54.0986 39.7669L69.3517 73.4029C78.7764 73.8375 87.8699 68.8401 92.5556 60.651L72.3374 29.7441C68.5563 30.4992 65.5143 31.4417 62.7984 32.8562L61.2815 30.2042C64.8547 28.0264 67.2427 24.3749 67.2427 20.1518C67.2427 13.3105 60.9806 7.9643 53.5552 7.9643V7.96411ZM30.5553 9.07917C30.0566 9.0848 29.5327 9.1673 29.0268 9.33192C27.87 9.70767 26.8912 10.482 26.4656 11.3175L26.4116 11.4244L14.2421 28.7301C13.8418 29.5649 13.7955 30.7827 14.1564 31.912C14.5258 33.0664 15.2898 34.0317 16.0693 34.4286L43.0096 48.1461C43.7731 48.5352 44.9953 48.597 46.1311 48.2262C47.2458 47.8624 48.1929 47.1227 48.6442 46.2589L53.3992 32.3352L53.4273 32.3359L54.6136 28.9178C54.5975 28.9193 54.5808 28.9197 54.5649 28.9212L55.4846 26.2277L55.5389 26.1212C55.9646 25.2857 56.0152 24.0362 55.6421 22.8809C55.2689 21.7255 54.4983 20.7518 53.6857 20.338L47.6711 17.2755C46.4443 18.8089 46.0679 21.0008 47.6062 23.0637L48.0018 23.7259L49.9308 24.7384L48.3828 27.7785L48.3554 27.7654L46.8333 30.7598L46.8586 30.772L45.6768 33.0925L26.6287 23.3935L30.1173 16.5426L30.8827 15.0389L36.6678 17.9849C36.9596 16.1455 37.5907 14.3759 38.6056 12.6591L32.2693 9.43317C31.7979 9.19317 31.1966 9.07224 30.5553 9.07917ZM71.4168 33.7129L75.9322 41.9292L62.4577 49.3335L58.7549 42.5967L57.9423 41.1179L71.4168 33.7129ZM70.0844 38.2962L62.5259 42.45L63.7901 44.7507L71.3486 40.5968L70.0844 38.2962ZM21.4687 40.9654L17.5556 48.6516L30.5883 55.2876L34.502 47.6016L21.4687 40.9654ZM77.1963 44.2298L81.7113 52.4455L68.237 59.8499L64.5348 53.113L63.7222 51.6342L77.1967 44.2294L77.1963 44.2298ZM75.8639 48.8127L68.3051 52.9665L69.5696 55.2672L77.1283 51.1133L75.8639 48.8127ZM18.6975 53.0202H18.6971L3.4447 82.9744L4.59276 86.505L19.0798 58.0544L22.0869 59.5859L7.60026 88.0362L11.7956 86.6721L14.2271 85.8814L12.9172 81.8397L16.9477 80.5328L15.636 76.5L19.671 75.1879L18.6641 72.0934L26.3835 56.9337L18.6975 53.0202Z" fill="black"/>
</svg>
