<svg width="32" height="32" viewBox="0 0 32 32" fill="none" xmlns="http://www.w3.org/2000/svg">
<path d="M16 9.33317C14.6815 9.33317 13.3925 9.72416 12.2962 10.4567C11.1999 11.1892 10.3454 12.2304 9.84081 13.4486C9.33622 14.6668 9.2042 16.0072 9.46144 17.3004C9.71867 18.5936 10.3536 19.7815 11.286 20.7139C12.2183 21.6462 13.4062 22.2812 14.6994 22.5384C15.9926 22.7956 17.3331 22.6636 18.5512 22.159C19.7694 21.6545 20.8106 20.8 21.5431 19.7036C22.2757 18.6073 22.6667 17.3184 22.6667 15.9998C22.6667 14.2317 21.9643 12.536 20.7141 11.2858C19.4638 10.0355 17.7681 9.33317 16 9.33317ZM16 19.9998C15.2089 19.9998 14.4355 19.7652 13.7777 19.3257C13.1199 18.8862 12.6072 18.2615 12.3045 17.5306C12.0017 16.7997 11.9225 15.9954 12.0769 15.2195C12.2312 14.4436 12.6122 13.7308 13.1716 13.1714C13.731 12.612 14.4437 12.231 15.2196 12.0767C15.9956 11.9224 16.7998 12.0016 17.5307 12.3043C18.2616 12.6071 18.8864 13.1198 19.3259 13.7776C19.7654 14.4354 20 15.2087 20 15.9998C20 17.0607 19.5786 18.0781 18.8284 18.8283C18.0783 19.5784 17.0609 19.9998 16 19.9998ZM22.6667 7.99984C22.403 7.99984 22.1452 8.07804 21.9259 8.22454C21.7066 8.37105 21.5357 8.57929 21.4348 8.82293C21.3339 9.06656 21.3075 9.33465 21.359 9.59329C21.4104 9.85193 21.5374 10.0895 21.7239 10.276C21.9103 10.4624 22.1479 10.5894 22.4066 10.6409C22.6652 10.6923 22.9333 10.6659 23.1769 10.565C23.4206 10.4641 23.6288 10.2932 23.7753 10.0739C23.9218 9.85467 24 9.59688 24 9.33317C24 8.97955 23.8595 8.64041 23.6095 8.39036C23.3594 8.14031 23.0203 7.99984 22.6667 7.99984ZM29.2533 10.9865C29.2312 9.84707 29.0148 8.71977 28.6133 7.65317C28.241 6.68259 27.6688 5.80116 26.9337 5.0661C26.1987 4.33104 25.3173 3.75879 24.3467 3.3865C23.2801 2.98504 22.1528 2.76859 21.0133 2.7465C19.72 2.6665 19.2933 2.6665 16 2.6665C12.7067 2.6665 12.28 2.6665 10.9867 2.7465C9.84724 2.76859 8.71993 2.98504 7.65334 3.3865C6.68276 3.75879 5.80133 4.33104 5.06627 5.0661C4.33121 5.80116 3.75896 6.68259 3.38667 7.65317C2.9852 8.71977 2.76876 9.84707 2.74667 10.9865C2.66667 12.2932 2.66667 12.7198 2.66667 15.9998C2.66667 19.2798 2.66667 19.7065 2.74667 21.0132C2.76876 22.1526 2.9852 23.2799 3.38667 24.3465C3.75896 25.3171 4.33121 26.1985 5.06627 26.9336C5.80133 27.6686 6.68276 28.2409 7.65334 28.6132C8.71993 29.0146 9.84724 29.2311 10.9867 29.2532C12.32 29.2532 12.7067 29.3332 16 29.3332C19.2933 29.3332 19.72 29.3332 21.0133 29.2532C22.1528 29.2311 23.2801 29.0146 24.3467 28.6132C25.3173 28.2409 26.1987 27.6686 26.9337 26.9336C27.6688 26.1985 28.241 25.3171 28.6133 24.3465C29.0148 23.2799 29.2312 22.1526 29.2533 21.0132C29.2533 19.6798 29.3333 19.2798 29.3333 15.9998C29.3333 12.7198 29.3333 12.2932 29.2533 10.9865ZM26.5867 20.8932C26.5633 21.7393 26.4058 22.5764 26.12 23.3732C25.8837 24.003 25.5103 24.5723 25.0267 25.0398C24.5619 25.5236 23.9915 25.8933 23.36 26.1198C22.5614 26.4173 21.7187 26.5795 20.8667 26.5998C19.6133 26.5998 19.2267 26.6665 15.9867 26.6665C12.7467 26.6665 12.3733 26.6665 11.12 26.6665C10.2694 26.6445 9.42768 26.487 8.62667 26.1998C7.99688 25.9636 7.42757 25.5901 6.96 25.1065C6.47621 24.6417 6.10656 24.0713 5.88 23.4398C5.58374 22.6455 5.42154 21.8074 5.40001 20.9598C5.40001 19.6265 5.40001 19.2932 5.40001 16.0665C5.40001 12.8398 5.40001 12.4532 5.40001 11.1732C5.42299 10.3214 5.58513 9.47922 5.88 8.67984C6.11008 8.05401 6.47938 7.48866 6.96 7.0265C7.42477 6.54271 7.99522 6.17306 8.62667 5.9465C9.42533 5.64903 10.268 5.48681 11.12 5.4665C12.3733 5.33317 12.76 5.33317 16 5.33317C19.24 5.33317 19.6267 5.33317 20.88 5.33317C21.7362 5.35494 22.583 5.5171 23.3867 5.81317C24.0125 6.04325 24.5778 6.41255 25.04 6.89317C25.5238 7.35794 25.8934 7.92838 26.12 8.55984C26.4464 9.37125 26.6313 10.2326 26.6667 11.1065C26.6667 12.4398 26.7333 12.7732 26.7333 15.9998C26.7333 19.2265 26.6667 19.6132 26.6667 20.8932H26.5867Z" fill="white"/>
</svg>
