<svg width="64" height="64" viewBox="0 0 64 64" fill="none" xmlns="http://www.w3.org/2000/svg">
<path d="M22.1066 30.1066C21.8639 30.3603 21.6736 30.6593 21.5466 30.9866C21.2799 31.6359 21.2799 32.3641 21.5466 33.0133C21.6736 33.3407 21.8639 33.6397 22.1066 33.8933L30.1066 41.8933C30.6088 42.3955 31.2898 42.6776 32 42.6776C32.7101 42.6776 33.3912 42.3955 33.8933 41.8933C34.3955 41.3912 34.6776 40.7101 34.6776 40C34.6776 39.2898 34.3955 38.6088 33.8933 38.1066L30.4266 34.6666H40C40.7072 34.6666 41.3855 34.3857 41.8856 33.8856C42.3857 33.3855 42.6666 32.7072 42.6666 32C42.6666 31.2927 42.3857 30.6145 41.8856 30.1144C41.3855 29.6143 40.7072 29.3333 40 29.3333H30.4266L33.8933 25.8933C34.1433 25.6454 34.3416 25.3505 34.477 25.0255C34.6124 24.7006 34.6821 24.352 34.6821 24C34.6821 23.6479 34.6124 23.2994 34.477 22.9744C34.3416 22.6495 34.1433 22.3545 33.8933 22.1066C33.6454 21.8567 33.3505 21.6583 33.0255 21.5229C32.7006 21.3876 32.352 21.3179 32 21.3179C31.6479 21.3179 31.2994 21.3876 30.9744 21.5229C30.6495 21.6583 30.3545 21.8567 30.1066 22.1066L22.1066 30.1066ZM5.33331 32C5.33331 37.2741 6.89729 42.4299 9.82746 46.8152C12.7576 51.2005 16.9224 54.6184 21.7951 56.6368C26.6678 58.6551 32.0296 59.1832 37.2024 58.1543C42.3752 57.1253 47.1268 54.5856 50.8562 50.8562C54.5856 47.1268 57.1253 42.3752 58.1543 37.2024C59.1832 32.0296 58.6551 26.6678 56.6368 21.7951C54.6184 16.9224 51.2005 12.7576 46.8152 9.82746C42.4299 6.89729 37.2741 5.33331 32 5.33331C28.4981 5.33331 25.0304 6.02307 21.7951 7.36319C18.5597 8.70332 15.62 10.6676 13.1438 13.1438C8.14283 18.1448 5.33331 24.9275 5.33331 32ZM53.3333 32C53.3333 36.2193 52.0821 40.3439 49.738 43.8521C47.3939 47.3604 44.062 50.0947 40.1639 51.7094C36.2657 53.3241 31.9763 53.7466 27.8381 52.9234C23.6998 52.1003 19.8986 50.0684 16.915 47.0849C13.9315 44.1014 11.8997 40.3002 11.0766 36.1619C10.2534 32.0236 10.6759 27.7342 12.2906 23.8361C13.9052 19.9379 16.6396 16.6061 20.1478 14.262C23.6561 11.9178 27.7806 10.6666 32 10.6666C37.6579 10.6666 43.0842 12.9143 47.0849 16.915C51.0857 20.9158 53.3333 26.342 53.3333 32Z" fill="white"/>
</svg>
