<svg width="180" height="48" viewBox="0 0 180 48" fill="none" xmlns="http://www.w3.org/2000/svg">
<path fill-rule="evenodd" clip-rule="evenodd" d="M7.68236 8.27915L0 27.2475H11.4344L10.1755 31.428L9.94942 32.1182C9.89706 32.2779 9.8618 32.4082 9.84714 32.5186L5.18535 48L25.9033 23.4478C26.3358 23.012 26.9259 22.359 27.5549 21.6095C28.429 20.568 28.9427 19.9354 29.1868 19.5567L29.9155 18.6931L24.4224 18.6931L14.8913 18.6931L18.88 8.71287L18.878 8.71062L22.428 8.50947C27.6567 8.21355 34.2514 8.5063 35.8483 9.10574C37.639 9.77806 39.7402 12.275 40.3255 14.426C40.5611 15.2916 40.7682 16.9267 40.7861 18.0594C40.7963 18.7183 40.813 19.2522 40.8293 19.6816C40.6316 20.9218 39.9719 22.1965 39.2284 23.2791L30.4719 33.7122C30.1642 34.03 29.7727 34.4912 29.2246 35.1493L27.3916 37.3503L27.405 37.3664L27.3887 37.3858H27.4212L31.7622 42.5958L36.1325 47.8416L41.3131 47.8375L46.4934 47.8334L42.0276 42.5502L37.5839 37.2931C41.2311 33.5481 43.4099 30.7365 44.6165 28.8723C44.6859 28.7679 44.7535 28.6616 44.8187 28.5542C45.1081 28.0907 45.3315 27.6934 45.4981 27.3628C48.4461 22.4126 48.2792 16.9404 47.5519 13.5411C46.4093 7.68135 42.7632 2.78276 37.7615 0.755643C35.9007 0.00158359 35.8687 0 23.4457 0H11.0355H10.9947L9.76062 3.08911C9.28651 4.27555 8.4722 6.30896 7.68236 8.27915Z" fill="#FD8929"/>
<path d="M59.6367 36H53.7219V18.5455H59.756C61.489 18.5455 62.9776 18.8949 64.2219 19.5938C65.4719 20.2869 66.4322 21.2841 67.1026 22.5852C67.7731 23.8864 68.1083 25.4432 68.1083 27.2557C68.1083 29.0739 67.7702 30.6364 67.0941 31.9432C66.4236 33.25 65.4549 34.2528 64.1878 34.9517C62.9265 35.6506 61.4094 36 59.6367 36ZM56.8839 33.2642H59.4833C60.6992 33.2642 61.7134 33.0426 62.5259 32.5994C63.3384 32.1506 63.9492 31.483 64.3583 30.5966C64.7674 29.7045 64.9719 28.5909 64.9719 27.2557C64.9719 25.9205 64.7674 24.8125 64.3583 23.9318C63.9492 23.0455 63.3441 22.3835 62.5429 21.946C61.7475 21.5028 60.7589 21.2812 59.577 21.2812H56.8839V33.2642ZM70.9762 36V22.9091H73.9677V25.0909H74.104C74.3427 24.3352 74.7518 23.7528 75.3313 23.3438C75.9165 22.929 76.5841 22.7216 77.3341 22.7216C77.5046 22.7216 77.6949 22.7301 77.9052 22.7472C78.1211 22.7585 78.3001 22.7784 78.4421 22.8068V25.6449C78.3114 25.5994 78.104 25.5597 77.8199 25.5256C77.5415 25.4858 77.2716 25.4659 77.0103 25.4659C76.4478 25.4659 75.9421 25.5881 75.4932 25.8324C75.0501 26.071 74.7006 26.4034 74.4449 26.8295C74.1893 27.2557 74.0614 27.7472 74.0614 28.304V36H70.9762ZM80.4918 36V22.9091H83.577V36H80.4918ZM82.0429 21.0511C81.5543 21.0511 81.1339 20.8892 80.7816 20.5653C80.4293 20.2358 80.2532 19.8409 80.2532 19.3807C80.2532 18.9148 80.4293 18.5199 80.7816 18.196C81.1339 17.8665 81.5543 17.7017 82.0429 17.7017C82.5373 17.7017 82.9577 17.8665 83.3043 18.196C83.6566 18.5199 83.8327 18.9148 83.8327 19.3807C83.8327 19.8409 83.6566 20.2358 83.3043 20.5653C82.9577 20.8892 82.5373 21.0511 82.0429 21.0511ZM98.4428 22.9091L93.7809 36H90.3718L85.7099 22.9091H88.9996L92.0081 32.6335H92.1445L95.1616 22.9091H98.4428ZM105.928 36.2557C104.615 36.2557 103.482 35.983 102.527 35.4375C101.578 34.8864 100.848 34.108 100.337 33.1023C99.8256 32.0909 99.5699 30.9006 99.5699 29.5312C99.5699 28.1847 99.8256 27.0028 100.337 25.9858C100.854 24.9631 101.576 24.1676 102.502 23.5994C103.428 23.0256 104.516 22.7386 105.766 22.7386C106.573 22.7386 107.334 22.8693 108.05 23.1307C108.772 23.3864 109.408 23.7841 109.959 24.3239C110.516 24.8636 110.953 25.5511 111.272 26.3864C111.59 27.2159 111.749 28.2045 111.749 29.3523V30.2983H101.019V28.2188H108.792C108.786 27.6278 108.658 27.1023 108.408 26.642C108.158 26.1761 107.809 25.8097 107.36 25.5426C106.917 25.2756 106.399 25.142 105.809 25.142C105.178 25.142 104.624 25.2955 104.147 25.6023C103.669 25.9034 103.297 26.3011 103.03 26.7955C102.769 27.2841 102.635 27.821 102.63 28.4062V30.2216C102.63 30.983 102.769 31.6364 103.047 32.1818C103.326 32.7216 103.715 33.1364 104.215 33.4261C104.715 33.7102 105.3 33.8523 105.971 33.8523C106.419 33.8523 106.826 33.7898 107.189 33.6648C107.553 33.5341 107.868 33.3438 108.135 33.0938C108.402 32.8438 108.604 32.5341 108.74 32.1648L111.621 32.4886C111.439 33.25 111.093 33.9148 110.581 34.483C110.076 35.0455 109.428 35.483 108.638 35.7955C107.848 36.1023 106.945 36.2557 105.928 36.2557Z" fill="#FD8929"/>
<path d="M113.2 36L116.098 18.5455H127.859L127.348 21.5881H119.277L118.595 25.7472H126.061L125.549 28.7898H118.083L117.402 32.9574H125.507L124.995 36H113.2ZM130.904 36H126.949L135.872 18.5455H140.628L143.747 36H139.793L137.671 22.5341H137.534L130.904 36ZM131.807 29.1392H141.148L140.654 32.0199H131.313L131.807 29.1392ZM156.964 23.6165C156.993 22.9062 156.785 22.358 156.342 21.9716C155.904 21.5852 155.243 21.392 154.356 21.392C153.754 21.392 153.231 21.4773 152.788 21.6477C152.345 21.8125 151.99 22.0426 151.723 22.3381C151.461 22.6278 151.299 22.9631 151.237 23.3438C151.174 23.6562 151.194 23.929 151.297 24.1619C151.404 24.3949 151.572 24.5966 151.799 24.767C152.032 24.9318 152.308 25.0767 152.626 25.2017C152.944 25.321 153.282 25.4233 153.64 25.5085L155.14 25.8835C155.873 26.054 156.532 26.2812 157.118 26.5653C157.708 26.8494 158.203 27.1989 158.6 27.6136C159.004 28.0284 159.288 28.517 159.453 29.0795C159.618 29.642 159.64 30.2869 159.521 31.0142C159.339 32.0824 158.916 33.0085 158.251 33.7926C157.586 34.571 156.714 35.1761 155.635 35.608C154.555 36.0341 153.305 36.2472 151.885 36.2472C150.475 36.2472 149.285 36.0312 148.314 35.5994C147.342 35.1676 146.635 34.5284 146.191 33.6818C145.754 32.8295 145.623 31.7756 145.799 30.5199H149.37C149.308 31.1051 149.393 31.5937 149.626 31.9858C149.865 32.3722 150.22 32.6648 150.691 32.8636C151.163 33.0568 151.717 33.1534 152.353 33.1534C152.984 33.1534 153.544 33.0625 154.032 32.8807C154.527 32.6989 154.927 32.446 155.234 32.1222C155.541 31.7983 155.728 31.4261 155.797 31.0057C155.865 30.6136 155.805 30.2841 155.618 30.017C155.43 29.75 155.129 29.5227 154.714 29.3352C154.305 29.142 153.797 28.9716 153.189 28.8239L151.365 28.3466C149.956 27.9886 148.89 27.429 148.169 26.6676C147.447 25.9062 147.189 24.8807 147.393 23.5909C147.575 22.5341 148.015 21.6108 148.714 20.821C149.419 20.0256 150.305 19.4091 151.373 18.9716C152.447 18.5284 153.62 18.3068 154.893 18.3068C156.189 18.3068 157.282 18.5312 158.174 18.9801C159.066 19.4233 159.717 20.0426 160.126 20.8381C160.535 21.6335 160.66 22.5597 160.501 23.6165H156.964ZM163.051 18.5455H167.185L169.921 26.0625H170.108L175.316 18.5455H179.449L171.216 29.8295L170.185 36H166.52L167.551 29.8295L163.051 18.5455Z" fill="white"/>
</svg>
