<svg width="96" height="96" viewBox="0 0 96 96" fill="none" xmlns="http://www.w3.org/2000/svg">
<g clip-path="url(#clip0_1_738)">
<path fill-rule="evenodd" clip-rule="evenodd" d="M63.056 16C65.2842 16.0001 67.4684 16.6205 69.3639 17.7919C71.2593 18.9632 72.7913 20.6392 73.788 22.632L79.332 33.716C80.308 33.316 81.268 32.884 82.212 32.42C83.1615 31.9458 84.2604 31.8682 85.2671 32.2043C86.2738 32.5403 87.1058 33.2625 87.58 34.212C88.0542 35.1615 88.1318 36.2604 87.7957 37.2671C87.4597 38.2738 86.7375 39.1058 85.788 39.58C84.8265 40.0079 83.8598 40.4239 82.888 40.828L86.732 48.52C87.5663 50.1878 88.0005 52.0271 88 53.892V64C88 65.6883 87.6437 67.3576 86.9544 68.8988C86.2651 70.44 85.2584 71.8185 84 72.944V78C84 79.5913 83.3679 81.1174 82.2426 82.2426C81.1174 83.3679 79.5913 84 78 84C76.4087 84 74.8826 83.3679 73.7574 82.2426C72.6321 81.1174 72 79.5913 72 78V76H24V78C24 79.5913 23.3679 81.1174 22.2426 82.2426C21.1174 83.3679 19.5913 84 18 84C16.4087 84 14.8826 83.3679 13.7574 82.2426C12.6321 81.1174 12 79.5913 12 78V72.944C9.544 70.744 8 67.552 8 64V53.888C8.00075 52.0258 8.43486 50.1894 9.268 48.524L13.08 40.892C12.1147 40.4867 11.1613 40.0507 10.22 39.584C9.27533 39.1036 8.55724 38.2713 8.22053 37.2664C7.88382 36.2615 7.95546 35.1646 8.42 34.212C8.65464 33.7417 8.97965 33.3223 9.37647 32.9777C9.77328 32.6331 10.2341 32.37 10.7326 32.2036C11.2312 32.0372 11.7576 31.9706 12.2819 32.0078C12.8061 32.0449 13.3179 32.185 13.788 32.42C14.7347 32.8867 15.6947 33.3187 16.668 33.716L22.212 22.636C23.2082 20.6424 24.7399 18.9656 26.6354 17.7936C28.5309 16.6215 30.7154 16.0004 32.944 16H63.056ZM30 52C28.4087 52 26.8826 52.6321 25.7574 53.7574C24.6321 54.8826 24 56.4087 24 58C24 59.5913 24.6321 61.1174 25.7574 62.2426C26.8826 63.3679 28.4087 64 30 64C31.5913 64 33.1174 63.3679 34.2426 62.2426C35.3679 61.1174 36 59.5913 36 58C36 56.4087 35.3679 54.8826 34.2426 53.7574C33.1174 52.6321 31.5913 52 30 52ZM66 52C64.4087 52 62.8826 52.6321 61.7574 53.7574C60.6321 54.8826 60 56.4087 60 58C60 59.5913 60.6321 61.1174 61.7574 62.2426C62.8826 63.3679 64.4087 64 66 64C67.5913 64 69.1174 63.3679 70.2426 62.2426C71.3679 61.1174 72 59.5913 72 58C72 56.4087 71.3679 54.8826 70.2426 53.7574C69.1174 52.6321 67.5913 52 66 52ZM63.056 24H32.944C32.2856 23.9999 31.6374 24.1623 31.0569 24.4728C30.4763 24.7833 29.9814 25.2323 29.616 25.78L29.368 26.212L24.288 36.364C30.48 38.22 38.824 40 48 40C56.568 40 64.404 38.448 70.44 36.732L71.708 36.364L66.632 26.212C66.3376 25.6233 65.9025 25.1163 65.3652 24.736C64.8279 24.3557 64.2051 24.1139 63.552 24.032L63.06 24H63.056Z" fill="black"/>
</g>
<defs>
<clipPath id="clip0_1_738">
<rect width="96" height="96" fill="white"/>
</clipPath>
</defs>
</svg>
