<svg width="24" height="24" viewBox="0 0 24 24" fill="none" xmlns="http://www.w3.org/2000/svg">
<path d="M7.87499 6.75C7.35581 6.75 6.8483 6.59605 6.41662 6.30761C5.98494 6.01917 5.64849 5.6092 5.44981 5.12955C5.25113 4.64989 5.19914 4.12209 5.30043 3.61289C5.40171 3.10369 5.65172 2.63596 6.01883 2.26885C6.38595 1.90173 6.85368 1.65173 7.36288 1.55044C7.87208 1.44915 8.39988 1.50114 8.87953 1.69982C9.35919 1.8985 9.76916 2.23495 10.0576 2.66663C10.346 3.09831 10.5 3.60583 10.5 4.125C10.4992 4.82095 10.2224 5.48817 9.73027 5.98028C9.23816 6.47239 8.57094 6.74921 7.87499 6.75ZM7.87499 3C7.65249 3 7.43498 3.06598 7.24997 3.1896C7.06497 3.31321 6.92077 3.48892 6.83563 3.69448C6.75048 3.90005 6.7282 4.12625 6.77161 4.34448C6.81501 4.56271 6.92216 4.76316 7.07949 4.9205C7.23683 5.07783 7.43728 5.18498 7.65551 5.22838C7.87374 5.27179 8.09994 5.24951 8.30551 5.16437C8.51108 5.07922 8.68678 4.93502 8.81039 4.75002C8.93401 4.56501 8.99999 4.34751 8.99999 4.125C8.99999 3.82663 8.88146 3.54048 8.67049 3.32951C8.45951 3.11853 8.17336 3 7.87499 3ZM16.8555 23.4848L14.505 18H9.17924C8.51821 17.999 7.87591 17.7803 7.35167 17.3777C6.82742 16.9751 6.45043 16.4109 6.27899 15.7725L5.05349 11.1773C4.85368 10.4278 4.95976 9.62977 5.34838 8.95857C5.737 8.28738 6.37634 7.79806 7.12574 7.59825C7.87514 7.39844 8.67322 7.50452 9.34442 7.89314C10.0156 8.28176 10.5049 8.9211 10.7047 9.6705L11.325 12H15.75V13.5H10.173L9.25574 10.0575C9.14911 9.70311 8.9088 9.4041 8.58564 9.22374C8.26248 9.04338 7.88183 8.99582 7.52423 9.09111C7.16662 9.18641 6.86012 9.41709 6.66957 9.73435C6.47902 10.0516 6.41937 10.4305 6.50324 10.791L7.72799 15.3855C7.81362 15.705 8.00222 15.9874 8.26459 16.1889C8.52695 16.3904 8.84844 16.4997 9.17924 16.5H15.4942L18.2347 22.8938L16.8555 23.4848ZM22.5 4.5H19.5V1.5H18V4.5H15V6H18V9H19.5V6H22.5V4.5Z" fill="black"/>
<path d="M13.5 20.9999H5.82603C5.49542 21 5.17405 20.8908 4.91188 20.6894C4.6497 20.488 4.46141 20.2056 4.37628 19.8861L1.52478 9.1934L2.97453 8.8064L5.82603 19.4999H13.5V20.9999Z" fill="black"/>
</svg>
