<svg width="115" height="17" viewBox="0 0 115 17" fill="none" xmlns="http://www.w3.org/2000/svg">
<path d="M9.50049 0L12.5598 5.21592L18.5005 6.49342L14.4505 10.9945L15.0628 17L9.50049 14.5659L3.93818 17L4.55049 10.9945L0.500488 6.49342L6.44122 5.21592L9.50049 0Z" fill="#FFCB45"/>
<path d="M33.5005 0L36.5598 5.21592L42.5005 6.49342L38.4505 10.9945L39.0628 17L33.5005 14.5659L27.9382 17L28.5505 10.9945L24.5005 6.49342L30.4412 5.21592L33.5005 0Z" fill="#FFCB45"/>
<path d="M57.5005 0L60.5598 5.21592L66.5005 6.49342L62.4505 10.9945L63.0628 17L57.5005 14.5659L51.9382 17L52.5505 10.9945L48.5005 6.49342L54.4412 5.21592L57.5005 0Z" fill="#FFCB45"/>
<path d="M81.5005 0L84.5598 5.21592L90.5005 6.49342L86.4505 10.9945L87.0628 17L81.5005 14.5659L75.9382 17L76.5505 10.9945L72.5005 6.49342L78.4412 5.21592L81.5005 0Z" fill="#FFCB45"/>
<path d="M105.5 0L108.559 5.21592L114.5 6.49342L110.45 10.9945L111.062 17L105.5 14.5659L99.9377 17L100.55 10.9945L96.5 6.49342L102.441 5.21592L105.5 0Z" fill="#F2F2F2"/>
</svg>
