<svg width="54" height="54" viewBox="0 0 54 54" fill="none" xmlns="http://www.w3.org/2000/svg">
<path d="M36.8934 25.1066C37.1361 25.3603 37.3264 25.6593 37.4534 25.9866C37.7201 26.6359 37.7201 27.3641 37.4534 28.0133C37.3264 28.3407 37.1361 28.6397 36.8934 28.8933L28.8934 36.8933C28.3912 37.3955 27.7102 37.6776 27 37.6776C26.2899 37.6776 25.6088 37.3955 25.1067 36.8933C24.6045 36.3912 24.3224 35.7101 24.3224 35C24.3224 34.2898 24.6045 33.6088 25.1067 33.1066L28.5734 29.6666H19C18.2928 29.6666 17.6145 29.3857 17.1144 28.8856C16.6143 28.3855 16.3334 27.7072 16.3334 27C16.3334 26.2927 16.6143 25.6145 17.1144 25.1144C17.6145 24.6143 18.2928 24.3333 19 24.3333H28.5734L25.1067 20.8933C24.8567 20.6454 24.6584 20.3505 24.523 20.0255C24.3876 19.7006 24.3179 19.352 24.3179 19C24.3179 18.6479 24.3876 18.2994 24.523 17.9744C24.6584 17.6495 24.8567 17.3545 25.1067 17.1066C25.3546 16.8567 25.6495 16.6583 25.9745 16.5229C26.2994 16.3876 26.648 16.3179 27 16.3179C27.3521 16.3179 27.7006 16.3876 28.0256 16.5229C28.3505 16.6583 28.6455 16.8567 28.8934 17.1066L36.8934 25.1066ZM53.6667 27C53.6667 32.2741 52.1027 37.4299 49.1725 41.8152C46.2424 46.2005 42.0776 49.6184 37.2049 51.6368C32.3322 53.6551 26.9704 54.1832 21.7976 53.1543C16.6248 52.1253 11.8732 49.5856 8.14384 45.8562C4.41444 42.1268 1.87468 37.3752 0.845741 32.2024C-0.183197 27.0296 0.344891 21.6678 2.36323 16.7951C4.38157 11.9224 7.7995 7.75763 12.1848 4.82746C16.5701 1.89729 21.7259 0.333313 27 0.333313C30.5019 0.333313 33.9696 1.02307 37.2049 2.36319C40.4403 3.70332 43.38 5.66757 45.8562 8.1438C50.8572 13.1448 53.6667 19.9275 53.6667 27ZM5.66669 27C5.66669 31.2193 6.91787 35.3439 9.262 38.8521C11.6061 42.3604 14.938 45.0947 18.8361 46.7094C22.7343 48.3241 27.0237 48.7466 31.1619 47.9234C35.3002 47.1003 39.1014 45.0684 42.085 42.0849C45.0685 39.1014 47.1003 35.3002 47.9234 31.1619C48.7466 27.0236 48.3241 22.7342 46.7094 18.8361C45.0948 14.9379 42.3604 11.6061 38.8522 9.26196C35.3439 6.91783 31.2194 5.66665 27 5.66665C21.3421 5.66665 15.9158 7.91426 11.9151 11.915C7.9143 15.9158 5.66669 21.342 5.66669 27Z" fill="white"/>
</svg>
