<svg width="33" height="33" viewBox="0 0 33 33" fill="none" xmlns="http://www.w3.org/2000/svg">
<path d="M24.3933 15.9934C24.3299 15.8297 24.2347 15.6802 24.1133 15.5534L17.4467 8.88675C17.3223 8.76243 17.1748 8.66382 17.0123 8.59654C16.8499 8.52926 16.6758 8.49463 16.5 8.49463C16.1449 8.49463 15.8044 8.63568 15.5533 8.88675C15.429 9.01107 15.3304 9.15866 15.2631 9.32109C15.1958 9.48351 15.1612 9.65761 15.1612 9.83342C15.1612 10.1885 15.3023 10.529 15.5533 10.7801L19.9533 15.1668H9.83333C9.47971 15.1668 9.14057 15.3072 8.89052 15.5573C8.64048 15.8073 8.5 16.1465 8.5 16.5001C8.5 16.8537 8.64048 17.1928 8.89052 17.4429C9.14057 17.6929 9.47971 17.8334 9.83333 17.8334H19.9533L15.5533 22.2201C15.4284 22.344 15.3292 22.4915 15.2615 22.654C15.1938 22.8165 15.1589 22.9907 15.1589 23.1667C15.1589 23.3428 15.1938 23.517 15.2615 23.6795C15.3292 23.842 15.4284 23.9895 15.5533 24.1134C15.6773 24.2384 15.8248 24.3376 15.9872 24.4053C16.1497 24.473 16.324 24.5078 16.5 24.5078C16.676 24.5078 16.8503 24.473 17.0128 24.4053C17.1752 24.3376 17.3227 24.2384 17.4467 24.1134L24.1133 17.4468C24.2347 17.3199 24.3299 17.1704 24.3933 17.0068C24.5267 16.6821 24.5267 16.318 24.3933 15.9934Z" fill="black"/>
</svg>
