<svg width="96" height="96" viewBox="0 0 96 96" fill="none" xmlns="http://www.w3.org/2000/svg">
<path d="M31 10C31 9.20435 30.6839 8.44129 30.1213 7.87868C29.5587 7.31607 28.7956 7 28 7C27.2043 7 26.4413 7.31607 25.8787 7.87868C25.316 8.44129 25 9.20435 25 10V16.32C19.24 16.78 15.464 17.908 12.688 20.688C9.90798 23.464 8.77998 27.244 8.31598 33H87.684C87.22 27.24 86.092 23.464 83.312 20.688C80.536 17.908 76.756 16.78 71 16.316V10C71 9.20435 70.6839 8.44129 70.1213 7.87868C69.5587 7.31607 68.7956 7 68 7C67.2043 7 66.4413 7.31607 65.8787 7.87868C65.316 8.44129 65 9.20435 65 10V16.052C62.34 16 59.356 16 56 16H40C36.644 16 33.66 16 31 16.052V10Z" fill="black"/>
<path fill-rule="evenodd" clip-rule="evenodd" d="M88 48C88 44.644 88 41.66 87.948 39H8.052C8 41.66 8 44.644 8 48V56C8 71.084 8 78.628 12.688 83.312C17.372 88 24.916 88 40 88H56C71.084 88 78.628 88 83.312 83.312C88 78.628 88 71.084 88 56V48ZM56 49C54.1435 49 52.363 49.7375 51.0503 51.0503C49.7375 52.363 49 54.1435 49 56V64C49 65.8565 49.7375 67.637 51.0503 68.9497C52.363 70.2625 54.1435 71 56 71C57.8565 71 59.637 70.2625 60.9497 68.9497C62.2625 67.637 63 65.8565 63 64V56C63 54.1435 62.2625 52.363 60.9497 51.0503C59.637 49.7375 57.8565 49 56 49ZM56 55C55.7348 55 55.4804 55.1054 55.2929 55.2929C55.1054 55.4804 55 55.7348 55 56V64C55 64.2652 55.1054 64.5196 55.2929 64.7071C55.4804 64.8946 55.7348 65 56 65C56.2652 65 56.5196 64.8946 56.7071 64.7071C56.8946 64.5196 57 64.2652 57 64V56C57 55.7348 56.8946 55.4804 56.7071 55.2929C56.5196 55.1054 56.2652 55 56 55ZM43.148 49.228C43.6962 49.4551 44.1648 49.8397 44.4945 50.3331C44.8241 50.8265 45.0001 51.4066 45 52V68C45 68.7956 44.6839 69.5587 44.1213 70.1213C43.5587 70.6839 42.7957 71 42 71C41.2043 71 40.4413 70.6839 39.8787 70.1213C39.3161 69.5587 39 68.7956 39 68V59.24L38.12 60.12C37.5513 60.6499 36.7991 60.9384 36.0219 60.9247C35.2447 60.911 34.5032 60.5961 33.9535 60.0465C33.4039 59.4968 33.089 58.7553 33.0753 57.9781C33.0616 57.2009 33.3501 56.4487 33.88 55.88L39.88 49.88C40.2993 49.4604 40.8335 49.1746 41.4151 49.0585C41.9968 48.9425 42.5998 49.0014 43.148 49.228Z" fill="black"/>
</svg>
