<svg width="96" height="96" viewBox="0 0 96 96" fill="none" xmlns="http://www.w3.org/2000/svg">
<g clip-path="url(#clip0_1_757)">
<path fill-rule="evenodd" clip-rule="evenodd" d="M10.2857 0C7.55777 0 4.94156 1.08367 3.01262 3.01262C1.08367 4.94156 0 7.55777 0 10.2857L0 51.4286C0 54.1565 1.08367 56.7727 3.01262 58.7017C4.94156 60.6306 7.55777 61.7143 10.2857 61.7143H85.7143C88.4422 61.7143 91.0584 60.6306 92.9874 58.7017C94.9163 56.7727 96 54.1565 96 51.4286V10.2857C96 7.55777 94.9163 4.94156 92.9874 3.01262C91.0584 1.08367 88.4422 0 85.7143 0L10.2857 0ZM52.2857 9.97029C52.2857 8.83364 51.8342 7.74356 51.0305 6.93983C50.2267 6.1361 49.1366 5.68457 48 5.68457C46.8634 5.68457 45.7733 6.1361 44.9695 6.93983C44.1658 7.74356 43.7143 8.83364 43.7143 9.97029V12.7131C41.2465 13.0023 38.9611 14.1568 37.2641 15.9716C35.567 17.7863 34.568 20.1438 34.4447 22.6254C34.3214 25.107 35.0816 27.552 36.5904 29.5261C38.0992 31.5001 40.2588 32.8756 42.6857 33.408L50.8937 35.1977C51.5545 35.3231 52.1438 35.6929 52.5442 36.2334C52.9445 36.7739 53.1265 37.4454 53.0538 38.114C52.9812 38.7827 52.6592 39.3994 52.1521 39.8413C51.645 40.2832 50.99 40.5178 50.3177 40.4983H45.6823C45.1277 40.5001 44.5863 40.3296 44.133 40.0101C43.6797 39.6907 43.3368 39.2383 43.152 38.7154C42.7468 37.6802 41.9552 36.8428 40.9443 36.3802C39.9334 35.9177 38.7822 35.866 37.734 36.2362C36.6857 36.6064 35.8222 37.3695 35.326 38.3643C34.8297 39.3591 34.7395 40.5079 35.0743 41.568C36.4046 45.3394 39.6891 48.1851 43.7143 48.8983V51.744C43.7143 52.8806 44.1658 53.9707 44.9695 54.7745C45.7733 55.5782 46.8634 56.0297 48 56.0297C49.1366 56.0297 50.2267 55.5782 51.0305 54.7745C51.8342 53.9707 52.2857 52.8806 52.2857 51.744V48.8914C54.8512 48.4368 57.1794 47.1061 58.8731 45.1262C60.5668 43.1463 61.5209 40.6401 61.5727 38.0351C61.6245 35.4302 60.7708 32.888 59.1571 30.8424C57.5435 28.7968 55.27 27.3745 52.7246 26.8183L44.5166 25.0286C44.0488 24.9304 43.6342 24.6619 43.3534 24.2752C43.0725 23.8885 42.9453 23.4112 42.9966 22.9361C43.0479 22.4609 43.2739 22.0217 43.6308 21.7038C43.9878 21.386 44.4501 21.2121 44.928 21.216H50.3177C50.8727 21.2121 51.4151 21.3819 51.8688 21.7016C52.3225 22.0213 52.6649 22.4749 52.848 22.9989C53.0211 23.5471 53.3028 24.0549 53.6762 24.492C54.0497 24.9291 54.5072 25.2866 55.0217 25.5433C55.5362 25.7999 56.097 25.9504 56.6708 25.9858C57.2447 26.0212 57.8197 25.9408 58.3618 25.7493C58.9039 25.5579 59.402 25.2593 59.8263 24.8714C60.2507 24.4835 60.5926 24.0142 60.8318 23.4915C61.0711 22.9687 61.2027 22.4031 61.2188 21.8284C61.2349 21.2537 61.1352 20.6817 60.9257 20.1463C60.2632 18.2691 59.1143 16.6014 57.5964 15.3135C56.0784 14.0256 54.2458 13.1638 52.2857 12.816V9.97029ZM18.8571 25.7143C20.2211 25.7143 21.5292 26.2561 22.4937 27.2206C23.4582 28.1851 24 29.4932 24 30.8571C24 32.2211 23.4582 33.5292 22.4937 34.4937C21.5292 35.4582 20.2211 36 18.8571 36C17.4932 36 16.1851 35.4582 15.2206 34.4937C14.2561 33.5292 13.7143 32.2211 13.7143 30.8571C13.7143 29.4932 14.2561 28.1851 15.2206 27.2206C16.1851 26.2561 17.4932 25.7143 18.8571 25.7143ZM77.1429 25.7143C78.5068 25.7143 79.8149 26.2561 80.7794 27.2206C81.7439 28.1851 82.2857 29.4932 82.2857 30.8571C82.2857 32.2211 81.7439 33.5292 80.7794 34.4937C79.8149 35.4582 78.5068 36 77.1429 36C75.7789 36 74.4708 35.4582 73.5063 34.4937C72.5418 33.5292 72 32.2211 72 30.8571C72 29.4932 72.5418 28.1851 73.5063 27.2206C74.4708 26.2561 75.7789 25.7143 77.1429 25.7143ZM30.8571 67.7143C33.2229 67.7143 35.1429 69.6343 35.1429 72V85.7143C35.1429 86.8509 34.6913 87.941 33.8876 88.7448C33.0839 89.5485 31.9938 90 30.8571 90C29.7205 90 28.6304 89.5485 27.8267 88.7448C27.023 87.941 26.5714 86.8509 26.5714 85.7143V72C26.5714 69.6343 28.4914 67.7143 30.8571 67.7143ZM69.4286 72C69.4286 71.4372 69.3177 70.8799 69.1023 70.3599C68.887 69.84 68.5713 69.3675 68.1733 68.9695C67.7754 68.5716 67.3029 68.2559 66.7829 68.0405C66.263 67.8251 65.7057 67.7143 65.1429 67.7143C64.58 67.7143 64.0228 67.8251 63.5028 68.0405C62.9828 68.2559 62.5104 68.5716 62.1124 68.9695C61.7144 69.3675 61.3988 69.84 61.1834 70.3599C60.968 70.8799 60.8571 71.4372 60.8571 72V85.7143C60.8571 86.2771 60.968 86.8344 61.1834 87.3544C61.3988 87.8743 61.7144 88.3468 62.1124 88.7448C62.5104 89.1427 62.9828 89.4584 63.5028 89.6738C64.0228 89.8892 64.58 90 65.1429 90C65.7057 90 66.263 89.8892 66.7829 89.6738C67.3029 89.4584 67.7754 89.1427 68.1733 88.7448C68.5713 88.3468 68.887 87.8743 69.1023 87.3544C69.3177 86.8344 69.4286 86.2771 69.4286 85.7143V72ZM52.2857 77.1429C52.2857 76.0062 51.8342 74.9161 51.0305 74.1124C50.2267 73.3087 49.1366 72.8571 48 72.8571C46.8634 72.8571 45.7733 73.3087 44.9695 74.1124C44.1658 74.9161 43.7143 76.0062 43.7143 77.1429V90.8571C43.7143 91.9938 44.1658 93.0839 44.9695 93.8876C45.7733 94.6913 46.8634 95.1429 48 95.1429C49.1366 95.1429 50.2267 94.6913 51.0305 93.8876C51.8342 93.0839 52.2857 91.9938 52.2857 90.8571V77.1429Z" fill="black"/>
</g>
<defs>
<clipPath id="clip0_1_757">
<rect width="96" height="96" fill="white"/>
</clipPath>
</defs>
</svg>
