<svg width="32" height="32" viewBox="0 0 32 32" fill="none" xmlns="http://www.w3.org/2000/svg">
<path d="M29.3333 7.73312C28.3311 8.16792 27.2712 8.45534 26.1867 8.58646C27.3309 7.90289 28.1884 6.8275 28.6 5.55979C27.5247 6.19988 26.3477 6.65085 25.12 6.89312C24.2994 6.00322 23.2066 5.41085 22.0131 5.20893C20.8195 5.007 19.5927 5.20694 18.5251 5.77738C17.4574 6.34782 16.6092 7.2565 16.1137 8.36091C15.6181 9.46531 15.5031 10.703 15.7867 11.8798C13.6126 11.7698 11.4859 11.2037 9.54488 10.2183C7.60383 9.23282 5.8918 7.85005 4.52001 6.15979C4.03886 7.00002 3.78603 7.95155 3.78667 8.91979C3.78497 9.81897 4.00563 10.7046 4.42901 11.4979C4.8524 12.2911 5.46536 12.9674 6.21334 13.4665C5.34397 13.4428 4.49319 13.2095 3.73334 12.7865V12.8531C3.73985 14.113 4.18133 15.3319 4.98309 16.3037C5.78485 17.2756 6.89768 17.9406 8.13334 18.1865C7.65768 18.3312 7.16384 18.4075 6.66667 18.4131C6.32253 18.4091 5.97923 18.3779 5.64001 18.3198C5.99188 19.4035 6.67284 20.3507 7.58811 21.0293C8.50337 21.708 9.60744 22.0845 10.7467 22.1065C8.82294 23.6201 6.44785 24.4463 4.00001 24.4531C3.55432 24.4546 3.10899 24.4279 2.66667 24.3731C5.16591 25.9868 8.07842 26.8434 11.0533 26.8398C13.1063 26.8611 15.1429 26.4732 17.0442 25.6986C18.9455 24.924 20.6734 23.7783 22.1269 22.3285C23.5805 20.8786 24.7306 19.1536 25.5101 17.2543C26.2895 15.355 26.6827 13.3194 26.6667 11.2665C26.6667 11.0398 26.6667 10.7998 26.6667 10.5598C27.7129 9.77954 28.6153 8.82302 29.3333 7.73312Z" fill="white"/>
</svg>
